<?xml version="1.0" standalone="no"?>
<!DOCTYPE svg PUBLIC "-//W3C//DTD SVG 20010904//EN"
 "http://www.w3.org/TR/2001/REC-SVG-20010904/DTD/svg10.dtd">
<svg version="1.0" xmlns="http://www.w3.org/2000/svg"
 width="500.000000pt" height="500.000000pt" viewBox="0 0 500.000000 500.000000"
 preserveAspectRatio="xMidYMid meet">
<metadata>
Created by potrace 1.14, written by Peter Selinger 2001-2017
</metadata>
<g transform="translate(0.000000,500.000000) scale(0.100000,-0.100000)"
fill="#000000" stroke="none">
<path d="M2280 4025 c-247 -35 -494 -137 -700 -289 -95 -71 -235 -207 -293
-287 -17 -24 -34 -46 -38 -49 -14 -10 -107 -168 -138 -235 -67 -143 -117 -304
-138 -445 -15 -102 -9 -407 10 -497 69 -327 198 -577 413 -799 221 -228 525
-390 830 -443 207 -35 465 -26 660 24 183 47 386 145 544 262 316 234 544 622
600 1021 14 99 14 329 0 422 -104 685 -609 1197 -1300 1315 -70 12 -366 12
-450 0z"/>
</g>
</svg>
